<svg width="27.000000" height="27.000000" viewBox="0 0 27 27" fill="none" xmlns="http://www.w3.org/2000/svg" xmlns:xlink="http://www.w3.org/1999/xlink">
	<desc>
			Created with Pixso.
	</desc>
	<defs>
		<clipPath id="clip8_970">
			<rect id="Icons/24/briefcase" rx="0.000000" width="25.875000" height="25.875000" transform="translate(0.562500 0.562500)" fill="white" fill-opacity="0"/>
		</clipPath>
	</defs>
	<g clip-path="url(#clip8_970)">
		<path id="Union" d="M3.76929 13.6812L12.3055 5.14502Q12.6283 4.82227 12.7687 4.70312Q13.0889 4.43115 13.4192 4.32373Q13.7125 4.22852 14.0059 4.22852Q14.2992 4.22852 14.5925 4.32373Q14.923 4.43115 15.243 4.70312Q15.3834 4.82227 15.7063 5.14502L24.2424 13.6812C24.6602 14.0986 24.6602 14.7549 24.2424 15.1729C23.8248 15.5903 23.1686 15.5903 22.7509 15.1729L21.2808 13.7026L21.2808 20.2671Q21.2808 21.1201 21.2557 21.4272Q21.2111 21.9736 21.0278 22.333Q20.9445 22.4971 20.8378 22.6436L20.8378 22.6436L20.8376 22.644Q20.7311 22.7905 20.6012 22.9204Q20.4713 23.0503 20.3246 23.1567L20.3245 23.1572L20.3245 23.1572Q20.1776 23.2637 20.0139 23.3472Q19.6544 23.5303 19.1078 23.5752Q18.8007 23.6001 17.948 23.6001L10.0608 23.6001Q9.20813 23.6001 8.901 23.5752Q8.35437 23.5303 7.99487 23.3472Q7.83118 23.2637 7.68433 23.1572Q7.5376 23.0503 7.40759 22.9204Q7.27771 22.7905 7.17102 22.6436L7.17102 22.6436Q7.06433 22.4971 6.98096 22.333Q6.79773 21.9736 6.75305 21.4272Q6.72803 21.1201 6.72803 20.2671L6.72803 13.7056L5.26086 15.1729C4.84314 15.5903 4.18689 15.5903 3.76929 15.1729C3.35168 14.7549 3.35168 14.0986 3.76929 13.6812Z" clip-rule="evenodd" fill="#FA8A34" fill-opacity="1.000000" fill-rule="evenodd"/>
	</g>
</svg>
