<svg width="27.000000" height="27.000000" viewBox="0 0 27 27" fill="none" xmlns="http://www.w3.org/2000/svg" xmlns:xlink="http://www.w3.org/1999/xlink">
	<desc>
			Created with Pixso.
	</desc>
	<defs>
		<clipPath id="clip8_995">
			<rect id="Icons/24/briefcase" rx="0.000000" width="25.875000" height="25.875000" transform="translate(0.562500 0.562500)" fill="white" fill-opacity="0"/>
		</clipPath>
	</defs>
	<g clip-path="url(#clip8_995)">
		<path id="Union" d="M12.9663 22.4717Q11.8958 22.4717 10.8755 22.2441Q10.0371 22.0576 9.23291 21.7168Q8.4209 21.374 7.69653 20.8965L7.69653 20.8965Q6.88574 20.3633 6.18481 19.6621Q5.48389 18.9619 4.9502 18.1504Q4.47339 17.4258 4.12964 16.6143Q3.78955 15.8096 3.60303 14.9717L3.60303 14.9717Q3.37573 13.9512 3.37573 12.8809Q3.37573 11.8096 3.60303 10.79L3.60303 10.79Q3.78955 9.95117 4.12964 9.14746Q4.47339 8.33496 4.9502 7.61035Q5.48389 6.7998 6.18481 6.09863Q6.8855 5.39844 7.69629 4.86426Q8.4209 4.3877 9.23291 4.04395Q10.0371 3.7041 10.8755 3.51758Q11.8955 3.29004 12.9663 3.29004Q14.0371 3.29004 15.0571 3.51758L15.0574 3.51758L15.0574 3.51758Q15.8955 3.7041 16.6997 4.04395Q17.512 4.3877 18.2363 4.86426Q19.0471 5.39844 19.748 6.09863Q20.449 6.7998 20.9827 7.61133Q21.4595 8.33496 21.803 9.14746Q22.1431 9.95117 22.3298 10.79L22.3298 10.79Q22.5569 11.8096 22.5569 12.8809Q22.5569 13.9512 22.3298 14.9717L22.3298 14.9717Q22.1431 15.8096 21.803 16.6143Q21.4595 17.4258 20.9827 18.1504L20.9824 18.1504Q20.6782 18.6133 20.3198 19.0391L23.4048 22.124C23.7388 22.458 23.7388 22.9834 23.4048 23.3174C23.0706 23.6514 22.5457 23.6514 22.2114 23.3174L19.1267 20.2324Q18.6992 20.5918 18.2361 20.8975L18.2361 20.8975Q17.5117 21.374 16.6997 21.7168Q15.8955 22.0576 15.0574 22.2441Q14.0371 22.4717 12.9663 22.4717ZM14.7217 20.5898L14.7217 20.5898Q15.3958 20.4365 16.0422 20.1631Q16.7029 19.8838 17.2932 19.4971L17.2932 19.4971Q17.9702 19.0537 18.5547 18.4688Q19.1392 17.8848 19.5825 17.208Q19.9692 16.6172 20.2488 15.957Q20.5222 15.3096 20.6753 14.6357L20.6753 14.6357Q20.8694 13.7803 20.8694 12.8809Q20.8694 11.9814 20.6753 11.125Q20.5222 10.4512 20.2488 9.80469Q19.9695 9.14453 19.5828 8.55371Q19.1392 7.87695 18.5547 7.29199Q17.9702 6.70801 17.2935 6.26465L17.2935 6.26465L17.2932 6.26465Q16.7029 5.87793 16.0425 5.59863Q15.3958 5.3252 14.7217 5.17188Q13.866 4.97754 12.9663 4.97754Q12.0667 4.97754 11.2109 5.17188L11.2109 5.17188Q10.5371 5.3252 9.89038 5.59863Q9.22974 5.87793 8.6394 6.26465L8.6394 6.26465Q7.9624 6.70801 7.37793 7.29199Q6.79346 7.87695 6.3501 8.55371L6.3501 8.55371Q5.96338 9.14355 5.68384 9.80469Q5.4104 10.4512 5.25757 11.125Q5.06323 11.9814 5.06323 12.8809Q5.06323 13.7803 5.25732 14.6357L5.25757 14.6357Q5.4104 15.3096 5.68384 15.957Q5.96338 16.6172 6.3501 17.208Q6.79346 17.8848 7.37793 18.4688Q7.9624 19.0537 8.6394 19.4971L8.6394 19.4971Q9.22974 19.8838 9.89038 20.1631Q10.5371 20.4365 11.2112 20.5898Q12.0667 20.7842 12.9663 20.7842Q13.866 20.7842 14.7217 20.5898Z" clip-rule="evenodd" fill="#606773" fill-opacity="1.000000" fill-rule="evenodd"/>
	</g>
</svg>
